<svg version="1.1" viewBox="0.0 0.0 960.0 540.0" fill="none" stroke="none" stroke-linecap="square" stroke-miterlimit="10" xmlns:xlink="http://www.w3.org/1999/xlink" xmlns="http://www.w3.org/2000/svg"><clipPath id="g96889ec63a_0_103.0"><path d="m0 0l960.0 0l0 540.0l-960.0 0l0 -540.0z" clip-rule="nonzero"/></clipPath><g clip-path="url(#g96889ec63a_0_103.0)"><path fill="#ffffff" d="m0 0l960.0 0l0 540.0l-960.0 0z" fill-rule="evenodd"/><path fill="#d39272" d="m91.58804 425.4234c27.20823 0 51.18663 7.945587 63.915543 19.720276l9.770065 0l0 19.221558c0 21.436188 -33.05269 39.051727 -73.68561 39.051727c-40.7208 0 -73.42194 -17.61554 -73.42194 -39.051727l0 -19.221558l9.762739 0c12.736237 -11.774689 36.363083 -19.720276 63.659203 -19.720276z" fill-rule="evenodd"/><defs><radialGradient id="g96889ec63a_0_103.1" gradientUnits="userSpaceOnUse" gradientTransform="matrix(9.124257286496459 0.0 0.0 9.124257286496459 0.0 0.0)" spreadMethod="pad" cx="10.052311261976032" cy="48.78174879632269" fx="10.052311261976032" fy="48.78174879632269" r="9.12425708770752"><stop offset="0.0" stop-color="#9dd5d1"/><stop offset="1.0" stop-color="#509f9a"/></radialGradient></defs><path fill="url(#g96889ec63a_0_103.1)" d="m91.58804 484.09402c40.63292 0 73.68561 -17.61554 73.68561 -38.950317c0 -21.833466 -33.05269 -39.043274 -73.68561 -39.043274c-40.376575 0 -73.42194 17.209808 -73.42194 39.043274c0 21.334778 33.045364 38.950317 73.42194 38.950317z" fill-rule="evenodd"/><path fill="#d39272" d="m87.16155 340.6168c27.20823 0 51.186623 7.945587 63.915535 19.720276l9.770065 0l0 19.221558c0 21.436188 -33.05269 39.051727 -73.6856 39.051727c-40.720802 0 -73.42194 -17.61554 -73.42194 -39.051727l0 -19.221558l9.762738 0c12.736233 -11.774689 36.363087 -19.720276 63.659206 -19.720276z" fill-rule="evenodd"/><defs><radialGradient id="g96889ec63a_0_103.2" gradientUnits="userSpaceOnUse" gradientTransform="matrix(9.124257286496459 0.0 0.0 9.124257286496459 0.0 0.0)" spreadMethod="pad" cx="9.567176460132247" cy="39.4871173541638" fx="9.567176460132247" fy="39.4871173541638" r="9.12425708770752"><stop offset="0.0" stop-color="#dcecd5"/><stop offset="1.0" stop-color="#93bc81"/></radialGradient></defs><path fill="url(#g96889ec63a_0_103.2)" d="m87.16155 399.2874c40.63291 0 73.6856 -17.61554 73.6856 -38.950317c0 -21.833466 -33.05269 -39.043274 -73.6856 -39.043274c-40.37658 0 -73.42194 17.209808 -73.42194 39.043274c0 21.334778 33.045364 38.950317 73.42194 38.950317z" fill-rule="evenodd"/><path fill="#f2a150" d="m87.16155 252.55618c27.20823 0 51.186623 7.5483093 63.915535 19.221588l9.770065 0l0 19.720276c0 21.436188 -33.05269 38.645996 -73.6856 38.645996c-40.720802 0 -73.42194 -17.209808 -73.42194 -38.645996l0 -19.720276l9.762738 0c12.736233 -11.673279 36.363087 -19.221588 63.659206 -19.221588z" fill-rule="evenodd"/><defs><linearGradient id="g96889ec63a_0_103.3" gradientUnits="userSpaceOnUse" gradientTransform="matrix(8.831427687183309 0.0 0.0 8.831427687183309 0.0 0.0)" spreadMethod="pad" x1="1.5557627700081353" y1="26.363456107858944" x2="1.5557308445722415" y2="35.19488379498455"><stop offset="0.0" stop-color="#ffffff"/><stop offset="1.0" stop-color="#e9ac92"/></linearGradient></defs><path fill="url(#g96889ec63a_0_103.3)" d="m87.16155 310.82108c40.63291 0 73.6856 -17.607086 73.6856 -39.043274c0 -21.334747 -33.05269 -38.950287 -73.6856 -38.950287c-40.37658 0 -73.42194 17.61554 -73.42194 38.950287c0 21.436188 33.045364 39.043274 73.42194 39.043274z" fill-rule="evenodd"/><path fill="#66758b" d="m87.16155 164.08987c27.20823 0 51.186623 7.9540405 63.915535 19.627289l9.770065 0l0 19.322998c0 21.83348 -33.05269 39.04329 -73.6856 39.04329c-40.720802 0 -73.42194 -17.209808 -73.42194 -39.04329l0 -19.322998l9.762738 0c12.736233 -11.673248 36.363087 -19.627289 63.659206 -19.627289z" fill-rule="evenodd"/><defs><radialGradient id="g96889ec63a_0_103.4" gradientUnits="userSpaceOnUse" gradientTransform="matrix(9.124257286496459 0.0 0.0 9.124257286496459 0.0 0.0)" spreadMethod="pad" cx="9.567176460132247" cy="20.14012764659861" fx="9.567176460132247" fy="20.14012764659861" r="9.12425708770752"><stop offset="0.0" stop-color="#d4e5f5"/><stop offset="1.0" stop-color="#70a4d5"/></radialGradient></defs><path fill="url(#g96889ec63a_0_103.4)" d="m87.16155 222.7605c40.63291 0 73.6856 -17.607086 73.6856 -39.04329c0 -21.334747 -33.05269 -38.950287 -73.6856 -38.950287c-40.37658 0 -73.42194 17.61554 -73.42194 38.950287c0 21.436203 33.045364 39.04329 73.42194 39.04329z" fill-rule="evenodd"/><path fill="#f3b4a8" d="m87.16155 76.02928c27.20823 0 51.186623 7.9540405 63.915535 19.627296l9.770065 0l0 19.322998c0 21.436195 -33.05269 39.04328 -73.6856 39.04328c-40.720802 0 -73.42194 -17.607086 -73.42194 -39.04328l0 -19.322998l9.762738 0c12.736233 -11.673256 36.363087 -19.627296 63.659206 -19.627296z" fill-rule="evenodd"/><defs><radialGradient id="g96889ec63a_0_103.5" gradientUnits="userSpaceOnUse" gradientTransform="matrix(9.119167060769193 0.0 0.0 9.119167060769193 0.0 0.0)" spreadMethod="pad" cx="9.572516760121283" cy="10.472938563524576" fx="9.572516760121283" fy="10.472938563524576" r="9.11916732788086"><stop offset="0.0" stop-color="#dbd4eb"/><stop offset="1.0" stop-color="#9180bb"/></radialGradient></defs><path fill="url(#g96889ec63a_0_103.5)" d="m87.16155 134.30263c40.63291 0 73.6856 -17.209816 73.6856 -38.646004c0 -21.740486 -33.05269 -38.9503 -73.6856 -38.9503c-40.37658 0 -73.42194 17.209812 -73.42194 38.9503c0 21.436188 33.045364 38.646004 73.42194 38.646004z" fill-rule="evenodd"/><path fill="#000000" fill-opacity="0.0" d="m183.5229 335.18283l-86.55945 0c-5.633583 0 -10.344215 6.6354065 -10.344215 14.589447l0 10.5659485" fill-rule="evenodd"/><path stroke="#efefef" stroke-width="2.0" stroke-linejoin="round" stroke-linecap="round" d="m183.5229 335.18283l-86.55945 0c-5.633583 0 -10.344215 6.6354065 -10.344215 14.589447l0 10.5659485" fill-rule="evenodd"/><path fill="#000000" fill-opacity="0.0" d="m183.5229 247.12224l-86.55945 0c-5.633583 0 -10.344215 6.2381287 -10.344215 14.589462l0 10.06723" fill-rule="evenodd"/><path stroke="#efefef" stroke-width="2.0" stroke-linejoin="round" stroke-linecap="round" d="m183.5229 247.12224l-86.55945 0c-5.633583 0 -10.344215 6.2381287 -10.344215 14.589462l0 10.06723" fill-rule="evenodd"/><path fill="#000000" fill-opacity="0.0" d="m183.5229 158.55449l-86.55945 0c-5.633583 0 -10.344215 6.7453003 -10.344215 14.699341l0 10.464508" fill-rule="evenodd"/><path stroke="#efefef" stroke-width="2.0" stroke-linejoin="round" stroke-linecap="round" d="m183.5229 158.55449l-86.55945 0c-5.633583 0 -10.344215 6.7453003 -10.344215 14.699341l0 10.464508" fill-rule="evenodd"/><path fill="#000000" fill-opacity="0.0" d="m183.5229 70.4939l-86.55945 0c-5.633583 0 -10.344215 6.7452927 -10.344215 14.699341l0 10.464508" fill-rule="evenodd"/><path stroke="#efefef" stroke-width="2.0" stroke-linejoin="round" stroke-linecap="round" d="m183.5229 70.4939l-86.55945 0c-5.633583 0 -10.344215 6.7452927 -10.344215 14.699341l0 10.464508" fill-rule="evenodd"/><path fill="#efefef" d="m86.61932 363.6601c1.4263763 0 2.64299 -1.707428 2.64299 -3.32193c0 -2.1131897 -1.2166138 -3.8206482 -2.64299 -3.8206482c-1.2106247 0 -2.4272385 1.7074585 -2.4272385 3.8206482c0 1.614502 1.2166138 3.32193 2.4272385 3.32193z" fill-rule="evenodd"/><path stroke="#efefef" stroke-width="2.0" stroke-linejoin="round" stroke-linecap="butt" d="m86.61932 363.6601c1.4263763 0 2.64299 -1.707428 2.64299 -3.32193c0 -2.1131897 -1.2166138 -3.8206482 -2.64299 -3.8206482c-1.2106247 0 -2.4272385 1.7074585 -2.4272385 3.8206482c0 1.614502 1.2166138 3.32193 2.4272385 3.32193z" fill-rule="evenodd"/><path fill="#efefef" d="m183.51955 338.50476c1.4983063 0 2.6370087 -1.3101807 2.6370087 -3.32193c0 -2.1131897 -1.1387024 -3.8291016 -2.6370087 -3.8291016c-1.498291 0 -2.3553162 1.7159119 -2.3553162 3.8291016c0 2.0117493 0.85702515 3.32193 2.3553162 3.32193z" fill-rule="evenodd"/><path stroke="#efefef" stroke-width="2.0" stroke-linejoin="round" stroke-linecap="butt" d="m183.51955 338.50476c1.4983063 0 2.6370087 -1.3101807 2.6370087 -3.32193c0 -2.1131897 -1.1387024 -3.8291016 -2.6370087 -3.8291016c-1.498291 0 -2.3553162 1.7159119 -2.3553162 3.8291016c0 2.0117493 0.85702515 3.32193 2.3553162 3.32193z" fill-rule="evenodd"/><path fill="#efefef" d="m86.61932 275.59952c1.4263763 0 2.64299 -1.7074585 2.64299 -3.8206482c0 -1.6144714 -1.2166138 -3.32193 -2.64299 -3.32193c-1.2106247 0 -2.4272385 1.7074585 -2.4272385 3.32193c0 2.1131897 1.2166138 3.8206482 2.4272385 3.8206482z" fill-rule="evenodd"/><path stroke="#efefef" stroke-width="2.0" stroke-linejoin="round" stroke-linecap="butt" d="m86.61932 275.59952c1.4263763 0 2.64299 -1.7074585 2.64299 -3.8206482c0 -1.6144714 -1.2166138 -3.32193 -2.64299 -3.32193c-1.2106247 0 -2.4272385 1.7074585 -2.4272385 3.32193c0 2.1131897 1.2166138 3.8206482 2.4272385 3.8206482z" fill-rule="evenodd"/><path fill="#efefef" d="m183.51955 250.44418c1.4983063 0 2.6370087 -1.7159119 2.6370087 -3.32193c0 -2.1131897 -1.1387024 -3.8291016 -2.6370087 -3.8291016c-1.498291 0 -2.3553162 1.7159119 -2.3553162 3.8291016c0 1.6060181 0.85702515 3.32193 2.3553162 3.32193z" fill-rule="evenodd"/><path stroke="#efefef" stroke-width="2.0" stroke-linejoin="round" stroke-linecap="butt" d="m183.51955 250.44418c1.4983063 0 2.6370087 -1.7159119 2.6370087 -3.32193c0 -2.1131897 -1.1387024 -3.8291016 -2.6370087 -3.8291016c-1.498291 0 -2.3553162 1.7159119 -2.3553162 3.8291016c0 1.6060181 0.85702515 3.32193 2.3553162 3.32193z" fill-rule="evenodd"/><path fill="#efefef" d="m86.61932 187.14165c1.4263763 0 2.64299 -1.3101807 2.64299 -3.4233704c0 -2.0117493 -1.2166138 -3.7276611 -2.64299 -3.7276611c-1.2106247 0 -2.4272385 1.7159119 -2.4272385 3.7276611c0 2.1131897 1.2166138 3.4233704 2.4272385 3.4233704z" fill-rule="evenodd"/><path stroke="#efefef" stroke-width="2.0" stroke-linejoin="round" stroke-linecap="butt" d="m86.61932 187.14165c1.4263763 0 2.64299 -1.3101807 2.64299 -3.4233704c0 -2.0117493 -1.2166138 -3.7276611 -2.64299 -3.7276611c-1.2106247 0 -2.4272385 1.7159119 -2.4272385 3.7276611c0 2.1131897 1.2166138 3.4233704 2.4272385 3.4233704z" fill-rule="evenodd"/><path fill="#efefef" d="m183.51955 162.38359c1.4983063 0 2.6370087 -1.7159119 2.6370087 -3.8291016c0 -1.6060181 -1.1387024 -3.32193 -2.6370087 -3.32193c-1.498291 0 -2.3553162 1.7159119 -2.3553162 3.32193c0 2.1131897 0.85702515 3.8291016 2.3553162 3.8291016z" fill-rule="evenodd"/><path stroke="#efefef" stroke-width="2.0" stroke-linejoin="round" stroke-linecap="butt" d="m183.51955 162.38359c1.4983063 0 2.6370087 -1.7159119 2.6370087 -3.8291016c0 -1.6060181 -1.1387024 -3.32193 -2.6370087 -3.32193c-1.498291 0 -2.3553162 1.7159119 -2.3553162 3.32193c0 2.1131897 0.85702515 3.8291016 2.3553162 3.8291016z" fill-rule="evenodd"/><path fill="#efefef" d="m86.61932 99.08106c1.4263763 0 2.64299 -1.7159119 2.64299 -3.4233704c0 -2.011757 -1.2166138 -3.7276611 -2.64299 -3.7276611c-1.2106247 0 -2.4272385 1.7159042 -2.4272385 3.7276611c0 1.7074585 1.2166138 3.4233704 2.4272385 3.4233704z" fill-rule="evenodd"/><path stroke="#efefef" stroke-width="2.0" stroke-linejoin="round" stroke-linecap="butt" d="m86.61932 99.08106c1.4263763 0 2.64299 -1.7159119 2.64299 -3.4233704c0 -2.011757 -1.2166138 -3.7276611 -2.64299 -3.7276611c-1.2106247 0 -2.4272385 1.7159042 -2.4272385 3.7276611c0 1.7074585 1.2166138 3.4233704 2.4272385 3.4233704z" fill-rule="evenodd"/><path fill="#efefef" d="m183.51955 73.91727c1.4983063 0 2.6370087 -1.310173 2.6370087 -3.4233627c0 -2.011757 -1.1387024 -3.7192154 -2.6370087 -3.7192154c-1.498291 0 -2.3553162 1.7074585 -2.3553162 3.7192154c0 2.1131897 0.85702515 3.4233627 2.3553162 3.4233627z" fill-rule="evenodd"/><path stroke="#efefef" stroke-width="2.0" stroke-linejoin="round" stroke-linecap="butt" d="m183.51955 73.91727c1.4983063 0 2.6370087 -1.310173 2.6370087 -3.4233627c0 -2.011757 -1.1387024 -3.7192154 -2.6370087 -3.7192154c-1.498291 0 -2.3553162 1.7074585 -2.3553162 3.7192154c0 2.1131897 0.85702515 3.4233627 2.3553162 3.4233627z" fill-rule="evenodd"/><path fill="#f6d5c7" d="m218.2132 99.99219c13.151703 0 24.135101 -12.6768265 24.135101 -27.85627c0 -15.039116 -10.983398 -27.844578 -24.135101 -27.844578c-13.506332 0 -24.12497 12.805462 -24.12497 27.844578c0 15.179443 10.618637 27.85627 24.12497 27.85627z" fill-rule="evenodd"/><path fill="#ffffff" d="m213.51628 64.90301q2.640625 0 4.03125 1.953125q1.40625 1.9375 1.40625 5.578125q0 3.625 -1.40625 5.59375q-1.390625 1.953125 -4.03125 1.953125q-2.640625 0 -4.046875 -1.953125q-1.390625 -1.96875 -1.390625 -5.59375q0 -3.640625 1.390625 -5.578125q1.40625 -1.953125 4.046875 -1.953125zm0 2.5q-0.71875 0 -1.15625 0.46875q-0.421875 0.46875 -0.625 1.5625q-0.203125 1.078125 -0.203125 3.0q0 1.921875 0.203125 3.015625q0.203125 1.09375 0.625 1.5625q0.4375 0.46875 1.15625 0.46875q0.71875 0 1.140625 -0.453125q0.4375 -0.453125 0.640625 -1.546875q0.203125 -1.109375 0.203125 -3.046875q0 -1.9375 -0.203125 -3.03125q-0.203125 -1.109375 -0.640625 -1.546875q-0.421875 -0.453125 -1.140625 -0.453125zm13.8983 -2.203125l0 14.421875l-3.296875 0l0 -11.140625l-3.09375 1.90625l-1.46875 -2.234375l4.859375 -2.953125l3.0 0z" fill-rule="nonzero"/><path fill="#a1d8d8" d="m218.2132 187.51039c13.151703 0 24.135101 -12.10379 24.135101 -27.844574c0 -15.039108 -10.983398 -27.844574 -24.135101 -27.844574c-13.506332 0 -24.12497 12.805466 -24.12497 27.844574c0 15.740784 10.618637 27.844574 24.12497 27.844574z" fill-rule="evenodd"/><path fill="#ffffff" d="m212.83376 152.4329q2.640625 0 4.03125 1.953125q1.40625 1.9375 1.40625 5.578125q0 3.625 -1.40625 5.59375q-1.390625 1.953125 -4.03125 1.953125q-2.640625 0 -4.046875 -1.953125q-1.390625 -1.96875 -1.390625 -5.59375q0 -3.640625 1.390625 -5.578125q1.40625 -1.953125 4.046875 -1.953125zm0 2.5q-0.71875 0 -1.15625 0.46875q-0.421875 0.46875 -0.625 1.5625q-0.203125 1.078125 -0.203125 3.0q0 1.921875 0.203125 3.015625q0.203125 1.09375 0.625 1.5625q0.4375 0.46875 1.15625 0.46875q0.71875 0 1.140625 -0.453125q0.4375 -0.453125 0.640625 -1.546875q0.203125 -1.109375 0.203125 -3.046875q0 -1.9375 -0.203125 -3.03125q-0.203125 -1.109375 -0.640625 -1.546875q-0.421875 -0.453125 -1.140625 -0.453125zm11.070465 -2.5q1.5625 0 2.671875 0.5625q1.125 0.546875 1.703125 1.484375q0.59375 0.9375 0.59375 2.078125q0 1.140625 -0.46875 2.1875q-0.46875 1.046875 -1.671875 2.40625q-1.1875 1.34375 -3.46875 3.421875l5.90625 0l-0.34375 2.578125l-9.375 0l0 -2.390625q2.609375 -2.578125 3.796875 -3.890625q1.203125 -1.3125 1.6875 -2.1875q0.484375 -0.875 0.484375 -1.796875q0 -0.875 -0.5 -1.375q-0.5 -0.5 -1.359375 -0.5q-0.765625 0 -1.375 0.359375q-0.59375 0.34375 -1.25 1.140625l-1.984375 -1.578125q0.90625 -1.171875 2.140625 -1.828125q1.25 -0.671875 2.8125 -0.671875z" fill-rule="nonzero"/><path fill="#ffc768" d="m218.2132 274.3503c13.151703 0 24.135101 -12.10379 24.135101 -27.142899c0 -15.740784 -10.983398 -27.856277 -24.135101 -27.856277c-13.506332 0 -24.12497 12.115494 -24.12497 27.856277c0 15.039108 10.618637 27.142899 24.12497 27.142899z" fill-rule="evenodd"/><path fill="#ffffff" d="m212.79109 239.61783q2.640625 0 4.03125 1.953125q1.40625 1.9375 1.40625 5.578125q0 3.625 -1.40625 5.59375q-1.390625 1.953125 -4.03125 1.953125q-2.640625 0 -4.046875 -1.953125q-1.390625 -1.96875 -1.390625 -5.59375q0 -3.640625 1.390625 -5.578125q1.40625 -1.953125 4.046875 -1.953125zm0 2.5q-0.71875 0 -1.15625 0.46875q-0.421875 0.46875 -0.625 1.5625q-0.203125 1.078125 -0.203125 3.0q0 1.921875 0.203125 3.015625q0.203125 1.09375 0.625 1.5625q0.4375 0.46875 1.15625 0.46875q0.71875 0 1.140625 -0.453125q0.4375 -0.453125 0.640625 -1.546875q0.203125 -1.109375 0.203125 -3.046875q0 -1.9375 -0.203125 -3.03125q-0.203125 -1.109375 -0.640625 -1.546875q-0.421875 -0.453125 -1.140625 -0.453125zm11.107422 -2.5q1.515625 0 2.59375 0.5q1.078125 0.484375 1.640625 1.3125q0.5625 0.828125 0.5625 1.859375q0 1.296875 -0.734375 2.171875q-0.734375 0.875 -2.078125 1.265625q1.453125 0.140625 2.359375 1.03125q0.921875 0.890625 0.921875 2.5q0 1.21875 -0.640625 2.234375q-0.640625 1.015625 -1.890625 1.609375q-1.234375 0.59375 -2.96875 0.59375q-3.15625 0 -4.9375 -2.171875l1.8125 -1.765625q0.71875 0.71875 1.40625 1.046875q0.703125 0.328125 1.53125 0.328125q1.0 0 1.609375 -0.546875q0.625 -0.5625 0.625 -1.53125q0 -1.109375 -0.59375 -1.59375q-0.578125 -0.484375 -1.75 -0.484375l-1.1875 0l0.359375 -2.328125l0.828125 0q0.96875 0 1.515625 -0.484375q0.5625 -0.484375 0.5625 -1.390625q0 -0.78125 -0.515625 -1.21875q-0.515625 -0.4375 -1.40625 -0.4375q-1.515625 0 -2.828125 1.25l-1.65625 -1.8125q2.046875 -1.9375 4.859375 -1.9375z" fill-rule="nonzero"/><path fill="#ff9c83" d="m218.2132 361.89194c13.151703 0 24.135101 -12.805481 24.135101 -27.844604c0 -15.179443 -10.983398 -27.856262 -24.135101 -27.856262c-13.506332 0 -24.12497 12.676819 -24.12497 27.856262c0 15.039124 10.618637 27.844604 24.12497 27.844604z" fill-rule="evenodd"/><path fill="#ffffff" d="m212.20454 326.80273q2.640625 0 4.03125 1.953125q1.40625 1.9375 1.40625 5.578125q0 3.625 -1.40625 5.59375q-1.390625 1.953125 -4.03125 1.953125q-2.640625 0 -4.046875 -1.953125q-1.390625 -1.96875 -1.390625 -5.59375q0 -3.640625 1.390625 -5.578125q1.40625 -1.953125 4.046875 -1.953125zm0 2.5q-0.71875 0 -1.15625 0.46875q-0.421875 0.46875 -0.625 1.5625q-0.203125 1.078125 -0.203125 3.0q0 1.921875 0.203125 3.015625q0.203125 1.09375 0.625 1.5625q0.4375 0.46875 1.15625 0.46875q0.71875 0 1.140625 -0.453125q0.4375 -0.453125 0.640625 -1.546875q0.203125 -1.109375 0.203125 -3.046875q0 -1.9375 -0.203125 -3.03125q-0.203125 -1.109375 -0.640625 -1.546875q-0.421875 -0.453125 -1.140625 -0.453125zm17.83638 6.59375l0 2.515625l-1.625 0l0 3.109375l-3.28125 0l-0.03125 -3.109375l-6.078125 0l0 -2.25l4.09375 -9.421875l2.859375 1.0625l-3.46875 8.09375l2.640625 0l0.359375 -3.421875l2.90625 0l0 3.421875l1.625 0z" fill-rule="nonzero"/><defs><radialGradient id="g96889ec63a_0_103.6" gradientUnits="userSpaceOnUse" gradientTransform="matrix(18.63795811272116 0.0 0.0 18.63795811272116 0.0 0.0)" spreadMethod="pad" cx="31.960279573862337" cy="4.788673089168823" fx="31.960279573862337" fy="4.788673089168823" r="18.637958526611328"><stop offset="0.0" stop-color="#dbd4eb"/><stop offset="1.0" stop-color="#9180bb"/></radialGradient></defs><path fill="url(#g96889ec63a_0_103.6)" d="m250.27278 52.29046l690.80316 0l0 73.92126l-690.80316 0z" fill-rule="evenodd"/><defs><radialGradient id="g96889ec63a_0_103.7" gradientUnits="userSpaceOnUse" gradientTransform="matrix(18.633729612321087 0.0 0.0 18.633729612321087 0.0 0.0)" spreadMethod="pad" cx="31.96753227341191" cy="9.184204449416223" fx="31.96753227341191" fy="9.184204449416223" r="18.633729934692383"><stop offset="0.0" stop-color="#d4e5f5"/><stop offset="1.0" stop-color="#70a4d5"/></radialGradient></defs><path fill="url(#g96889ec63a_0_103.7)" d="m250.27278 135.68716l690.80316 0l0 70.897644l-690.80316 0z" fill-rule="evenodd"/><path fill="#ff9c83" d="m217.23781 454.68192c13.151703 0 24.135101 -12.80545 24.135101 -27.844574c0 -15.179443 -10.983398 -27.856262 -24.135101 -27.856262c-13.506332 0 -24.124954 12.676819 -24.124954 27.856262c0 15.039124 10.618622 27.844574 24.124954 27.844574z" fill-rule="evenodd"/><path fill="#ffffff" d="m211.53842 419.59274q2.640625 0 4.03125 1.953125q1.40625 1.9375 1.40625 5.578125q0 3.625 -1.40625 5.59375q-1.390625 1.953125 -4.03125 1.953125q-2.640625 0 -4.046875 -1.953125q-1.390625 -1.96875 -1.390625 -5.59375q0 -3.640625 1.390625 -5.578125q1.40625 -1.953125 4.046875 -1.953125zm0 2.5q-0.71875 0 -1.15625 0.46875q-0.421875 0.46875 -0.625 1.5625q-0.203125 1.078125 -0.203125 3.0q0 1.921875 0.203125 3.015625q0.203125 1.09375 0.625 1.5625q0.4375 0.46875 1.15625 0.46875q0.71875 0 1.140625 -0.453125q0.4375 -0.453125 0.640625 -1.546875q0.203125 -1.109375 0.203125 -3.046875q0 -1.9375 -0.203125 -3.03125q-0.203125 -1.109375 -0.640625 -1.546875q-0.421875 -0.453125 -1.140625 -0.453125zm15.914505 0.21875l-5.234375 0l0 3.015625q1.0 -0.46875 2.140625 -0.46875q1.1875 0 2.125 0.5625q0.9375 0.546875 1.46875 1.625q0.546875 1.0625 0.546875 2.515625q0 1.515625 -0.703125 2.671875q-0.6875 1.15625 -1.984375 1.796875q-1.28125 0.640625 -2.96875 0.640625q-2.921875 0 -4.796875 -2.171875l1.875 -1.75q1.171875 1.390625 2.796875 1.390625q1.109375 0 1.703125 -0.65625q0.609375 -0.671875 0.609375 -1.90625q0 -2.40625 -2.015625 -2.40625q-0.4375 0 -0.84375 0.125q-0.390625 0.109375 -0.890625 0.375l-2.28125 0l0 -7.78125l8.828125 0l-0.375 2.421875z" fill-rule="nonzero"/><path fill="#000000" fill-opacity="0.0" d="m185.03557 423.74124l-86.55944 0c-5.633583 0 -10.344223 6.7453003 -10.344223 14.699341l0 10.464539" fill-rule="evenodd"/><path stroke="#efefef" stroke-width="2.0" stroke-linejoin="round" stroke-linecap="round" d="m185.03557 423.74124l-86.55944 0c-5.633583 0 -10.344223 6.7453003 -10.344223 14.699341l0 10.464539" fill-rule="evenodd"/><path fill="#efefef" d="m87.01898 458.3293c1.4263763 0 2.64299 -1.3101807 2.64299 -3.4233704c0 -2.0117493 -1.2166138 -3.7276611 -2.64299 -3.7276611c-1.2106171 0 -2.4272385 1.7159119 -2.4272385 3.7276611c0 2.1131897 1.2166214 3.4233704 2.4272385 3.4233704z" fill-rule="evenodd"/><path stroke="#efefef" stroke-width="2.0" stroke-linejoin="round" stroke-linecap="butt" d="m87.01898 458.3293c1.4263763 0 2.64299 -1.3101807 2.64299 -3.4233704c0 -2.0117493 -1.2166138 -3.7276611 -2.64299 -3.7276611c-1.2106171 0 -2.4272385 1.7159119 -2.4272385 3.7276611c0 2.1131897 1.2166214 3.4233704 2.4272385 3.4233704z" fill-rule="evenodd"/><path fill="#efefef" d="m180.52548 428.3987c1.4983063 0 2.6370087 -1.7159119 2.6370087 -3.8291016c0 -1.6060181 -1.1387024 -3.32193 -2.6370087 -3.32193c-1.498291 0 -2.3553162 1.7159119 -2.3553162 3.32193c0 2.1131897 0.85702515 3.8291016 2.3553162 3.8291016z" fill-rule="evenodd"/><path stroke="#efefef" stroke-width="2.0" stroke-linejoin="round" stroke-linecap="butt" d="m180.52548 428.3987c1.4983063 0 2.6370087 -1.7159119 2.6370087 -3.8291016c0 -1.6060181 -1.1387024 -3.32193 -2.6370087 -3.32193c-1.498291 0 -2.3553162 1.7159119 -2.3553162 3.32193c0 2.1131897 0.85702515 3.8291016 2.3553162 3.8291016z" fill-rule="evenodd"/><defs><radialGradient id="g96889ec63a_0_103.8" gradientUnits="userSpaceOnUse" gradientTransform="matrix(18.63795811272116 0.0 0.0 18.63795811272116 0.0 0.0)" spreadMethod="pad" cx="31.960279573862337" cy="13.752161850846184" fx="31.960279573862337" fy="13.752161850846184" r="18.637958526611328"><stop offset="0.0" stop-color="#ffffff"/><stop offset="1.0" stop-color="#e9ac92"/></radialGradient></defs><path fill="url(#g96889ec63a_0_103.8)" d="m250.27278 219.3516l690.80316 0l0 73.921265l-690.80316 0z" fill-rule="evenodd"/><defs><radialGradient id="g96889ec63a_0_103.9" gradientUnits="userSpaceOnUse" gradientTransform="matrix(18.633729612321087 0.0 0.0 18.633729612321087 0.0 0.0)" spreadMethod="pad" cx="31.96753227341191" cy="18.326361450269946" fx="31.96753227341191" fy="18.326361450269946" r="18.633729934692383"><stop offset="0.0" stop-color="#dcecd5"/><stop offset="1.0" stop-color="#93bc81"/></radialGradient></defs><path fill="url(#g96889ec63a_0_103.9)" d="m250.27278 306.03964l690.80316 0l0 70.897644l-690.80316 0z" fill-rule="evenodd"/><defs><radialGradient id="g96889ec63a_0_103.10" gradientUnits="userSpaceOnUse" gradientTransform="matrix(18.633729612321087 0.0 0.0 18.633729612321087 0.0 0.0)" spreadMethod="pad" cx="31.92331358653275" cy="23.314197170005595" fx="31.92331358653275" fy="23.314197170005595" r="18.633729934692383"><stop offset="0.0" stop-color="#9dd5d1"/><stop offset="1.0" stop-color="#509f9a"/></radialGradient></defs><path fill="url(#g96889ec63a_0_103.10)" d="m249.44882 398.98163l690.8031 0l0 70.897644l-690.8031 0z" fill-rule="evenodd"/></g></svg>